<?xml version="1.0" standalone="no"?>
<!DOCTYPE svg PUBLIC "-//W3C//DTD SVG 20010904//EN"
 "http://www.w3.org/TR/2001/REC-SVG-20010904/DTD/svg10.dtd">
<svg version="1.0" xmlns="http://www.w3.org/2000/svg"
 width="810.000000pt" height="810.000000pt" viewBox="0 0 810.000000 810.000000"
 preserveAspectRatio="xMidYMid meet">
<metadata>
Created by potrace 1.10, written by Peter Selinger 2001-2011
</metadata>
<g transform="translate(0.000000,810.000000) scale(0.100000,-0.100000)"
fill="#000000" stroke="none">
<path d="M5020 6745 c-74 -7 -148 -18 -163 -24 -16 -6 -44 -11 -63 -11 -19 0
-51 -7 -71 -15 -19 -8 -45 -15 -57 -15 -19 0 -65 -13 -151 -42 -16 -5 -46 -14
-65 -18 -46 -10 -98 -29 -135 -47 -29 -14 -30 -14 -70 30 -44 48 -114 94 -186
121 -35 14 -68 17 -145 14 -92 -4 -119 -10 -199 -43 -16 -7 -50 -21 -75 -31
-57 -23 -210 -102 -230 -119 -8 -6 -22 -15 -30 -19 -8 -3 -28 -15 -45 -26 -16
-11 -37 -23 -45 -27 -8 -3 -41 -26 -72 -50 -31 -24 -59 -43 -63 -43 -7 0 -125
-88 -140 -105 -5 -7 -30 -27 -55 -46 -70 -52 -219 -200 -248 -244 -20 -32 -25
-53 -26 -111 -1 -62 -5 -77 -25 -98 -14 -15 -30 -26 -37 -26 -7 0 -17 -6 -21
-13 -4 -8 -15 -18 -24 -23 -43 -24 -225 -189 -324 -294 -109 -115 -135 -145
-135 -157 0 -7 -4 -13 -8 -13 -10 0 -82 -96 -82 -109 0 -6 -6 -14 -13 -18 -8
-4 -17 -15 -20 -23 -4 -8 -16 -28 -27 -45 -11 -16 -22 -37 -26 -45 -3 -8 -10
-22 -15 -30 -5 -8 -12 -22 -15 -30 -3 -8 -12 -28 -19 -45 -31 -73 -41 -109
-67 -243 -12 -61 -9 -87 17 -207 14 -62 72 -160 130 -220 63 -65 94 -87 160
-118 22 -10 53 -25 68 -33 16 -8 41 -14 57 -14 15 0 47 -7 70 -15 60 -21 376
-21 446 0 27 8 64 15 81 15 18 0 50 6 70 14 102 36 115 39 124 25 5 -8 9 -23
9 -35 0 -11 5 -25 10 -30 7 -7 6 -20 -5 -40 -8 -16 -15 -34 -15 -41 0 -7 -7
-29 -16 -50 -9 -21 -22 -51 -29 -68 -7 -16 -19 -46 -27 -65 -9 -19 -23 -55
-33 -80 -10 -25 -24 -61 -33 -80 -8 -19 -20 -48 -27 -65 -36 -85 -82 -174
-107 -206 -15 -20 -28 -39 -28 -42 0 -3 -13 -20 -29 -38 -40 -43 -53 -96 -34
-140 8 -19 20 -37 27 -41 10 -5 13 -30 11 -85 -1 -69 -4 -78 -21 -81 -11 -2
-36 12 -58 32 -64 57 -180 61 -228 8 -31 -35 -50 -79 -38 -87 18 -11 11 -33
-12 -38 -13 -4 -29 0 -39 9 -25 23 -87 37 -135 29 -31 -4 -55 -17 -88 -49 -43
-40 -46 -46 -46 -94 l0 -52 -44 0 c-25 0 -48 -4 -51 -10 -3 -5 -15 -10 -25
-10 -10 0 -36 -21 -57 -46 -36 -45 -38 -49 -38 -124 0 -73 2 -81 37 -131 44
-64 86 -105 148 -145 58 -37 156 -85 195 -95 17 -4 44 -12 60 -17 58 -19 140
-40 210 -53 95 -17 401 -23 468 -9 28 7 68 14 88 17 l36 5 7 -84 c14 -184 24
-265 37 -295 7 -18 10 -36 5 -40 -4 -4 -58 -11 -119 -15 -215 -13 -365 -28
-392 -38 -14 -5 -39 -10 -55 -10 -21 0 -36 -9 -56 -36 -27 -35 -27 -37 -13
-75 l14 -40 1478 1 c1639 0 1519 -5 1519 66 0 41 -26 69 -72 80 -14 3 -50 12
-81 20 -30 8 -89 14 -130 14 -41 0 -92 5 -114 11 -22 5 -112 11 -200 13 -179
5 -184 7 -146 70 12 18 21 41 21 51 0 10 14 47 30 82 17 34 30 69 30 77 0 7
14 38 30 69 17 31 30 61 30 67 0 10 47 115 76 172 8 14 14 33 14 41 0 8 7 20
15 27 8 7 15 21 15 32 0 10 14 46 30 80 17 33 30 66 30 73 0 7 7 18 15 25 8 7
15 23 15 35 0 12 7 28 15 35 8 7 15 20 15 29 0 9 7 25 15 35 8 11 15 30 15 42
0 12 7 27 15 34 8 7 15 21 15 31 0 10 4 20 9 24 5 3 12 18 16 35 3 16 20 55
36 86 16 32 29 65 29 73 0 9 7 25 15 35 8 11 15 27 15 37 0 9 7 19 15 23 8 3
15 15 15 27 0 12 6 42 14 68 52 167 50 157 49 355 0 153 -4 198 -17 228 -9 21
-16 50 -16 65 0 15 -7 37 -15 47 -8 11 -15 29 -15 41 0 12 -7 30 -15 41 -8 10
-14 26 -15 34 0 16 -147 313 -180 365 -11 17 -25 39 -30 50 -6 11 -18 34 -27
50 -9 17 -20 33 -25 36 -5 3 -10 19 -11 35 -2 27 1 29 43 37 54 9 234 24 423
35 108 6 141 11 154 25 23 23 23 109 0 135 -9 10 -17 23 -17 30 0 9 -104 117
-160 165 -25 22 -26 47 -1 47 11 0 26 7 35 15 8 8 18 15 21 15 9 0 137 111
191 165 32 33 116 134 167 200 37 49 75 103 80 115 4 8 16 29 27 45 11 17 23
37 26 45 8 20 63 138 80 173 8 16 14 41 14 55 1 15 7 38 15 52 11 19 14 64 14
180 0 116 -3 161 -14 180 -8 14 -14 34 -15 46 -1 51 -129 243 -191 284 -12 8
-30 22 -39 30 -33 30 -182 110 -205 110 -7 0 -26 7 -41 15 -16 8 -42 15 -57
15 -16 0 -38 5 -50 11 -19 11 -315 39 -377 37 -14 0 -86 -6 -160 -13z m-1016
-112 c66 -21 67 -22 91 -36 87 -53 90 -68 17 -87 -45 -12 -86 -27 -145 -56
-16 -8 -36 -14 -45 -14 -9 0 -46 -14 -82 -31 -36 -17 -78 -37 -95 -44 -111
-48 -231 -102 -268 -121 -16 -8 -35 -14 -43 -14 -8 0 -17 -7 -20 -15 -4 -8
-13 -15 -21 -15 -8 0 -29 -7 -46 -16 -18 -9 -39 -20 -47 -25 -8 -4 -55 -29
-105 -55 -49 -26 -121 -65 -158 -88 -37 -22 -77 -46 -88 -52 -12 -7 -26 -17
-32 -23 -6 -6 -18 -11 -27 -11 -8 0 -32 -16 -53 -36 -41 -40 -74 -41 -61 -2 8
26 91 138 102 138 4 0 34 25 67 56 62 58 248 204 261 204 4 0 14 7 23 15 20
19 131 99 151 108 8 4 29 16 45 27 17 10 53 30 80 45 28 14 57 29 65 34 8 5
22 12 30 15 8 3 22 10 30 14 8 5 31 16 50 24 19 8 52 23 73 32 21 9 46 16 56
16 10 0 34 7 52 15 45 19 80 19 143 -2z m1452 7 c15 -6 52 -15 83 -19 54 -9
94 -20 156 -47 17 -7 37 -15 45 -18 55 -21 183 -125 230 -189 80 -107 111
-255 90 -429 -7 -57 -19 -112 -26 -123 -8 -11 -14 -30 -14 -42 0 -13 -4 -31
-9 -41 -5 -9 -27 -52 -47 -95 -21 -43 -44 -83 -51 -89 -7 -6 -13 -14 -13 -19
0 -9 -56 -93 -80 -119 -8 -9 -41 -49 -73 -88 -71 -85 -177 -182 -261 -236 -33
-22 -67 -46 -74 -53 -20 -19 -67 -16 -87 7 -10 11 -26 20 -36 20 -9 0 -19 4
-21 10 -3 9 -35 18 -143 39 -32 6 -71 23 -114 48 -2 2 1 14 7 28 8 18 19 25
40 25 34 0 182 74 231 116 98 82 162 165 197 256 25 62 29 86 28 166 l0 93
-35 29 c-50 43 -106 41 -198 -7 -39 -20 -71 -40 -71 -45 0 -4 -4 -8 -9 -8 -6
0 -30 -13 -54 -30 -25 -16 -50 -30 -57 -30 -7 0 -24 -7 -38 -15 -39 -21 -119
-45 -150 -45 -25 0 -159 -15 -337 -39 -87 -12 -164 -28 -190 -40 -11 -6 -69
-26 -130 -47 -60 -20 -130 -44 -155 -52 -25 -9 -65 -26 -89 -39 -24 -13 -49
-23 -54 -23 -6 0 -56 -23 -111 -51 -110 -56 -121 -62 -183 -102 -24 -15 -45
-27 -49 -27 -10 0 -141 -88 -224 -151 -208 -157 -361 -335 -390 -455 -33 -139
-34 -141 -22 -235 6 -52 16 -118 23 -147 9 -34 10 -55 3 -62 -9 -9 -34 -16
-199 -52 -40 -9 -129 -13 -265 -12 -171 1 -210 4 -237 17 -18 10 -41 17 -51
17 -55 0 -179 92 -230 170 -60 91 -72 132 -72 249 0 140 38 264 120 396 10 17
25 41 33 55 65 119 364 432 545 569 109 83 338 241 349 241 2 0 35 18 73 40
87 52 168 96 203 111 15 6 27 15 27 20 0 5 9 9 19 9 11 0 22 4 25 9 6 9 200
106 234 116 12 3 22 11 22 16 0 5 7 9 16 9 9 0 28 6 42 13 15 8 43 21 62 29
63 27 115 50 143 64 16 8 37 14 47 14 9 0 23 7 30 15 7 8 25 15 40 15 15 0 33
7 40 15 7 8 22 15 34 15 12 0 31 7 42 15 10 8 28 15 40 15 11 0 29 7 40 15 10
8 31 15 45 15 14 0 34 7 45 15 10 8 33 15 49 15 17 0 39 7 49 15 11 8 32 15
46 15 14 0 35 7 46 15 10 8 33 15 50 15 16 0 39 7 50 15 10 8 35 15 54 15 19
0 48 7 64 15 15 8 41 15 56 15 15 0 47 7 70 15 23 8 61 15 84 15 22 0 61 7 86
14 55 18 453 22 496 6z m-110 -833 c5 -14 -39 -104 -80 -162 -11 -16 -45 -56
-74 -88 -50 -55 -58 -77 -27 -77 23 0 170 146 193 192 12 24 24 60 28 81 13
78 64 55 64 -28 0 -115 -108 -276 -250 -370 -117 -78 -236 -103 -330 -70 -23
8 -56 15 -72 15 -16 0 -31 6 -34 15 -4 8 -14 15 -23 15 -9 0 -21 4 -27 10 -20
20 -207 110 -260 126 -41 12 -54 20 -52 32 5 27 145 29 228 3 36 -11 99 -24
140 -29 80 -9 227 1 244 18 24 24 -16 32 -175 35 -176 3 -229 10 -229 30 0 16
20 20 165 36 108 12 235 38 271 57 11 5 39 19 64 31 25 12 59 31 75 41 17 11
39 24 51 29 12 5 34 23 50 40 31 33 52 39 60 18z m-946 -402 c14 -7 50 -23 80
-36 30 -13 64 -31 75 -40 11 -9 30 -20 41 -23 12 -4 29 -15 39 -26 10 -11 22
-20 27 -20 5 0 24 -11 42 -25 18 -14 37 -25 43 -25 5 0 19 -13 31 -30 13 -16
29 -30 37 -30 15 0 30 -35 20 -50 -3 -5 -24 -10 -46 -10 -45 0 -101 -27 -127
-61 -10 -13 -26 -49 -35 -79 -9 -30 -26 -89 -38 -130 -13 -41 -26 -82 -30 -90
-4 -8 -12 -33 -19 -56 -10 -34 -10 -46 4 -72 9 -18 22 -32 30 -32 7 0 21 -9
32 -21 18 -20 93 -59 112 -59 6 0 12 -7 16 -15 3 -8 14 -15 25 -15 11 0 23 -5
26 -10 4 -6 23 -17 43 -26 36 -15 37 -14 55 11 28 38 50 32 75 -22 11 -27 25
-55 30 -63 5 -8 19 -35 31 -60 21 -42 62 -123 82 -162 5 -10 9 -31 9 -48 0
-16 4 -30 10 -30 5 0 16 -12 25 -27 9 -16 24 -41 35 -58 11 -16 22 -37 25 -45
3 -8 13 -28 21 -43 7 -16 14 -36 14 -45 0 -9 7 -26 15 -36 8 -11 15 -34 15
-51 0 -17 7 -52 16 -77 12 -35 14 -75 11 -174 -7 -194 -32 -292 -123 -479 -62
-127 -219 -303 -359 -403 -33 -23 -87 -62 -121 -86 -97 -70 -163 -105 -334
-180 -61 -27 -244 -86 -266 -86 -11 0 -24 -3 -28 -7 -4 -5 -29 -13 -54 -20
-26 -6 -69 -19 -95 -29 -41 -14 -50 -15 -62 -3 -8 8 -11 19 -7 25 8 13 173
107 227 130 39 16 47 51 10 46 -185 -25 -230 -50 -402 -220 -62 -62 -138 -156
-182 -228 l-31 -51 -128 -6 c-70 -2 -130 -2 -133 2 -4 3 -10 92 -13 198 -3
105 -10 203 -15 217 -6 13 -11 96 -12 183 -1 87 -2 194 -3 238 -1 76 0 80 22
83 14 2 22 -2 22 -11 0 -32 110 -36 192 -8 30 10 73 30 94 44 21 13 49 27 62
31 13 4 45 26 71 49 26 23 68 60 94 81 26 22 47 45 47 52 0 16 25 25 37 13 6
-6 8 1 5 21 -4 25 -1 30 17 30 13 0 21 6 21 18 0 10 6 26 14 37 47 69 71 292
42 405 -46 182 -171 335 -326 400 -14 5 -33 15 -42 20 -27 15 -180 13 -203 -4
-11 -7 -31 -15 -45 -18 -14 -3 -32 -8 -40 -12 -12 -5 -21 5 -34 36 -10 24 -24
57 -31 73 -8 17 -23 55 -34 85 -11 30 -23 64 -27 75 -40 108 -57 321 -30 374
9 16 16 37 16 45 0 32 74 135 159 224 49 50 93 92 96 92 7 0 81 58 125 98 14
12 29 22 33 22 5 0 26 12 46 28 41 31 69 49 91 59 8 4 21 13 28 20 7 7 19 13
26 13 8 0 19 7 26 15 7 8 21 15 31 15 10 0 22 6 26 13 10 15 129 77 148 77 7
0 28 8 47 17 18 9 45 22 60 30 14 7 35 13 45 13 10 0 28 6 39 14 11 8 38 17
60 19 59 7 176 -4 204 -18z m540 -247 c44 -26 54 -58 18 -58 -29 1 -93 53 -84
68 10 17 22 15 66 -10z m190 -178 c25 -7 59 -19 77 -26 17 -8 36 -14 41 -14
13 0 72 -31 90 -47 7 -7 18 -13 23 -13 13 0 28 -13 105 -90 73 -72 83 -108 29
-101 -49 6 -770 2 -802 -5 -19 -4 -33 -1 -41 9 -13 15 -5 44 34 119 8 14 14
42 14 61 0 55 27 92 80 110 55 19 281 17 350 -3z m-358 -369 c10 -14 25 -18
61 -17 26 0 51 6 55 12 4 7 34 13 67 15 51 3 60 2 57 -12 -1 -9 5 -22 13 -29
14 -11 8 -16 -36 -31 -29 -11 -56 -24 -60 -30 -10 -16 -86 -5 -108 15 -10 9
-24 16 -32 16 -8 0 -29 9 -48 21 -32 19 -33 21 -16 40 22 24 30 24 47 0z
m-1283 -711 c99 -28 122 -41 195 -113 74 -73 109 -138 132 -246 16 -75 16 -83
-1 -157 -10 -44 -23 -86 -29 -94 -6 -8 -19 -29 -28 -46 -21 -38 -57 -81 -117
-141 -47 -46 -217 -164 -266 -184 -70 -28 -130 -47 -137 -43 -19 12 -4 41 33
69 45 33 63 67 54 102 -4 19 -1 23 18 23 13 0 32 9 42 20 11 13 31 20 53 20
36 0 92 33 92 54 0 7 9 21 20 31 11 10 20 22 20 28 0 5 11 23 26 39 16 19 24
40 22 56 -4 35 -28 41 -28 8 0 -14 -4 -26 -8 -26 -13 0 -132 -116 -132 -129 0
-6 -10 -11 -22 -11 -13 0 -41 -14 -62 -30 -22 -17 -46 -30 -53 -30 -7 0 -13
-9 -13 -19 0 -11 -3 -21 -8 -23 -4 -1 -27 -27 -52 -56 -53 -64 -121 -112 -158
-112 -19 0 -32 -8 -44 -30 -10 -18 -25 -30 -38 -30 -12 0 -18 -4 -15 -10 10
-17 83 -12 93 6 6 11 16 14 32 9 16 -5 19 -10 11 -18 -6 -6 -11 -20 -11 -31 0
-28 -39 -66 -67 -66 -18 0 -23 5 -23 26 0 21 -3 25 -17 19 -34 -14 -48 -10
-51 13 -3 18 -10 22 -38 22 -22 0 -37 6 -40 15 -4 8 -10 15 -15 15 -4 0 -20
12 -36 27 -21 22 -27 37 -27 75 -1 33 2 44 10 37 20 -16 43 1 54 39 5 21 10
40 10 45 0 4 18 25 39 46 49 49 111 159 111 197 0 16 -9 40 -20 54 -20 24 -21
25 -35 6 -8 -11 -15 -32 -15 -48 0 -18 -5 -28 -15 -28 -8 0 -15 -6 -15 -14 0
-35 -76 -136 -103 -136 -9 0 -22 11 -28 24 -9 19 -7 29 7 52 10 16 21 31 24
34 3 3 28 39 55 80 57 85 71 113 133 260 8 19 19 42 23 50 5 8 17 34 28 57 36
78 84 141 129 170 105 66 179 77 301 43z m-919 -1015 c7 -8 17 -15 22 -15 6 0
29 -13 52 -28 22 -15 48 -31 56 -35 8 -4 38 -21 65 -37 28 -17 97 -53 155 -80
141 -67 135 -63 138 -99 3 -27 0 -31 -21 -31 -14 0 -30 7 -37 15 -7 8 -23 15
-35 15 -12 0 -28 7 -35 15 -7 8 -18 15 -24 15 -6 0 -56 23 -110 50 -54 28
-105 50 -112 50 -8 0 -14 5 -14 10 0 6 -8 14 -17 17 -10 4 -34 16 -53 28 -19
12 -46 25 -59 30 -27 8 -61 35 -61 49 0 18 33 46 55 46 13 0 28 -7 35 -15z
m-246 -141 c39 -19 78 -39 86 -45 98 -60 268 -148 445 -230 34 -15 147 -49
165 -49 9 0 26 -10 38 -23 17 -18 19 -26 10 -35 -16 -16 -67 -15 -100 2 -14 8
-46 17 -70 21 -24 4 -51 11 -60 16 -10 5 -37 14 -60 19 -61 13 -134 35 -198
60 -30 12 -69 25 -85 29 -17 4 -39 12 -50 18 -11 6 -34 18 -52 27 -17 9 -36
16 -43 16 -15 0 -116 66 -152 99 -16 13 -28 33 -28 43 0 22 46 68 68 68 9 0
47 -16 86 -36z m758 -69 c0 -5 -5 -11 -11 -13 -6 -2 -11 4 -11 13 0 9 5 15 11
13 6 -2 11 -8 11 -13z m1998 0 c0 -8 -4 -15 -10 -15 -5 0 -10 7 -10 15 0 8 5
15 10 15 6 0 10 -7 10 -15z m-80 -30 c0 -8 -7 -15 -15 -15 -16 0 -20 12 -8 23
11 12 23 8 23 -8z m30 -64 c0 -34 -15 -70 -53 -128 -15 -24 -27 -48 -27 -56 0
-7 -7 -22 -15 -34 -9 -12 -27 -53 -41 -90 -14 -37 -33 -81 -42 -98 -15 -26
-29 -60 -82 -200 -30 -80 -18 -73 -137 -77 -61 -2 -116 1 -125 6 -10 6 -20 24
-24 41 -3 16 -10 35 -14 40 -4 6 -10 22 -14 37 -3 14 -28 51 -56 81 -27 30
-50 60 -50 66 0 6 12 13 28 17 78 18 240 84 287 118 37 26 62 41 100 59 17 8
48 31 69 51 21 20 43 36 47 36 5 0 27 24 49 53 88 115 100 125 100 78z m-2850
-43 c62 -30 99 -46 165 -74 17 -7 46 -20 67 -28 20 -9 44 -16 55 -16 10 0 27
-7 37 -15 11 -8 31 -15 45 -15 14 -1 37 -7 51 -15 14 -8 39 -15 55 -15 17 0
48 -7 70 -15 22 -8 62 -14 88 -15 27 0 57 -5 68 -10 11 -6 54 -14 97 -18 l77
-7 3 -37 c2 -21 7 -38 13 -38 15 0 10 -32 -8 -52 -15 -16 -35 -18 -242 -17
-124 0 -248 4 -276 9 -27 5 -79 14 -113 20 -57 10 -236 76 -302 112 -73 39
-170 154 -170 202 0 32 26 66 60 79 28 11 95 -3 160 -35z m870 -69 c0 -5 -7
-9 -15 -9 -15 0 -20 12 -9 23 8 8 24 -1 24 -14z m1298 -217 c2 -7 -5 -16 -17
-19 -23 -6 -28 -19 -8 -26 6 -2 9 -8 4 -13 -4 -4 -14 -1 -23 7 -12 13 -13 20
-3 43 13 27 39 32 47 8z m-186 -124 c29 -6 60 -17 69 -25 8 -7 20 -13 25 -13
12 0 61 -55 88 -100 12 -19 30 -62 40 -95 10 -33 24 -78 32 -100 8 -23 14 -50
14 -61 0 -11 7 -30 16 -42 8 -12 14 -29 12 -38 -3 -14 -59 -15 -498 -15 -361
0 -496 3 -499 12 -2 6 6 24 18 40 11 15 21 34 21 41 0 7 7 22 15 32 8 11 15
25 15 32 0 7 14 33 30 57 17 25 30 49 30 54 0 5 13 23 30 39 16 16 30 34 30
39 1 15 86 75 107 75 10 1 29 7 43 15 14 8 42 14 62 15 21 0 52 6 70 14 33 14
113 32 155 35 12 0 45 -4 75 -11z m536 -336 c2 -22 -2 -34 -12 -38 -11 -4 -16
-19 -16 -46 0 -31 -4 -41 -20 -45 -29 -8 -25 -17 18 -36 21 -9 49 -28 62 -42
38 -40 17 -50 -108 -50 -146 0 -184 12 -149 47 8 7 19 24 26 36 9 16 18 21 32
17 24 -8 37 19 19 40 -7 8 -10 21 -7 29 3 7 -1 26 -9 41 -19 38 -18 73 4 78 9
2 49 3 87 2 l70 -1 3 -32z m-1290 -3 c2 -14 -4 -31 -12 -39 -9 -7 -16 -22 -16
-34 0 -26 -44 -71 -59 -62 -6 4 -19 1 -30 -6 -17 -10 -24 -9 -46 12 -21 20
-25 32 -25 85 0 34 3 65 7 69 4 4 46 5 93 4 83 -3 85 -4 88 -29z m-8 -133 c0
-8 -5 -18 -10 -21 -15 -9 7 -35 29 -35 9 0 22 -10 29 -21 28 -44 -11 -53 -212
-50 l-78 1 7 27 c3 15 18 38 31 52 21 21 28 23 45 13 26 -17 74 -15 89 3 7 8
21 15 31 15 11 0 19 7 19 15 0 8 5 15 10 15 6 0 10 -6 10 -14z"/>
<path d="M3915 6570 c11 -5 27 -9 35 -9 13 -1 13 0 0 9 -8 5 -24 9 -35 9 -20
0 -20 0 0 -9z"/>
<path d="M3499 6414 c-11 -14 -10 -18 6 -30 30 -22 55 -18 55 10 0 21 -16 36
-40 36 -4 0 -14 -7 -21 -16z"/>
<path d="M3382 6273 c2 -10 10 -18 18 -18 8 0 16 8 18 18 2 12 -3 17 -18 17
-15 0 -20 -5 -18 -17z"/>
<path d="M5494 6535 c19 -14 36 -12 36 6 0 5 -12 9 -27 9 -27 -1 -27 -1 -9
-15z"/>
<path d="M5575 6540 c-3 -5 1 -10 9 -10 8 0 18 5 21 10 3 6 -1 10 -9 10 -8 0
-18 -4 -21 -10z"/>
<path d="M5030 6515 c0 -10 7 -15 18 -13 21 4 19 22 -2 26 -10 2 -16 -3 -16
-13z"/>
<path d="M4843 6507 c-30 -13 -29 -35 1 -43 28 -7 46 1 46 20 0 23 -23 34 -47
23z"/>
<path d="M4960 6505 c-16 -19 -6 -45 18 -45 29 0 48 26 32 45 -16 19 -34 19
-50 0z"/>
<path d="M5660 6510 c0 -5 7 -10 15 -10 8 0 15 5 15 10 0 6 -7 10 -15 10 -8 0
-15 -4 -15 -10z"/>
<path d="M5561 6471 c-16 -10 -6 -31 15 -31 8 0 14 9 14 20 0 22 -7 25 -29 11z"/>
<path d="M4413 6413 c-7 -2 -13 -16 -13 -29 0 -22 4 -25 28 -22 21 2 28 9 30
31 3 27 -12 34 -45 20z"/>
<path d="M5379 6396 c-3 -3 -44 -11 -90 -17 -46 -5 -93 -14 -104 -19 -11 -6
-45 -14 -75 -19 -91 -16 -134 -27 -157 -39 -12 -7 -30 -12 -40 -12 -10 0 -31
-7 -47 -15 -16 -8 -46 -18 -68 -21 -21 -4 -41 -11 -44 -15 -3 -5 -14 -9 -26
-9 -11 0 -31 -9 -45 -20 -14 -11 -34 -20 -44 -20 -10 0 -48 -14 -86 -31 -81
-36 -93 -42 -155 -68 -27 -11 -48 -25 -48 -30 0 -6 -6 -11 -12 -11 -7 -1 -26
-11 -42 -25 -24 -19 -34 -21 -54 -14 -33 13 -50 6 -54 -23 -3 -21 -8 -23 -64
-24 -60 -1 -134 -31 -134 -55 0 -5 -13 -9 -30 -9 -19 0 -34 -7 -42 -20 -7 -12
-33 -33 -58 -47 -58 -35 -175 -40 -209 -9 -35 32 -67 3 -38 -36 10 -13 36 -17
120 -21 94 -4 108 -2 123 14 10 11 26 19 36 19 10 0 21 6 24 14 3 8 18 20 34
26 16 7 32 21 35 31 9 27 55 26 55 -1 0 -25 16 -26 30 -1 7 13 7 22 0 26 -25
16 -5 25 55 25 58 0 65 2 65 20 0 15 7 20 24 20 14 0 28 -4 31 -10 9 -14 25
-12 25 3 0 13 8 18 96 60 32 15 68 36 79 46 24 21 99 46 113 37 6 -3 13 2 17
13 3 11 19 22 37 26 17 4 45 16 62 26 51 31 58 33 79 19 17 -10 22 -10 32 4 7
9 24 16 38 16 14 0 41 9 59 19 18 11 50 23 70 26 21 4 42 13 49 21 6 7 27 16
48 20 20 4 42 11 49 17 13 10 85 19 145 18 15 0 27 4 27 8 0 5 60 11 133 14
139 5 173 -1 316 -56 79 -30 116 -75 76 -91 -8 -3 -15 -10 -15 -16 0 -5 7 -10
15 -10 8 0 15 7 15 15 0 8 7 15 15 15 24 0 17 21 -20 59 -20 20 -43 44 -52 54
-9 9 -24 17 -33 17 -21 0 -40 20 -40 42 0 15 -8 18 -42 17 -24 0 -90 3 -148 6
-58 4 -108 4 -111 1z"/>
<path d="M5815 6370 c-4 -6 -3 -16 3 -22 6 -6 12 -6 17 2 4 6 3 16 -3 22 -6 6
-12 6 -17 -2z"/>
<path d="M5867 6343 c-12 -11 -8 -23 7 -23 8 0 16 7 20 15 5 15 -14 21 -27 8z"/>
<path d="M4472 6295 c-41 -19 -78 -35 -84 -35 -5 0 -22 -6 -36 -14 -29 -14
-60 -26 -162 -58 -36 -11 -77 -27 -92 -34 -14 -8 -33 -14 -42 -14 -8 0 -30 -6
-48 -14 -18 -8 -49 -21 -70 -30 -20 -9 -42 -16 -50 -16 -7 0 -22 -7 -32 -15
-11 -8 -28 -15 -38 -15 -10 0 -18 -4 -18 -10 0 -5 -11 -12 -24 -16 -13 -3 -71
-29 -128 -58 -77 -39 -103 -57 -103 -71 0 -23 28 -32 47 -15 21 17 209 110
224 110 8 0 14 5 14 10 0 6 8 10 18 10 10 0 27 7 38 15 10 8 26 15 34 15 8 0
33 9 55 20 22 11 45 19 51 20 7 0 25 7 40 15 16 8 36 15 45 15 9 0 30 7 45 15
16 8 38 15 49 15 11 0 29 7 39 15 11 8 30 15 42 15 13 0 26 5 29 10 3 6 13 10
22 10 8 0 29 7 46 15 18 8 61 25 97 37 36 13 79 33 95 45 25 19 28 24 15 33
-24 15 -40 12 -118 -25z"/>
<path d="M5913 6293 c-27 -18 -29 -35 -8 -53 20 -16 31 -5 40 38 7 35 1 39
-32 15z"/>
<path d="M5130 6273 c-12 -15 -17 -30 -12 -35 11 -11 65 -14 81 -4 18 11 13
44 -8 56 -29 15 -37 13 -61 -17z"/>
<path d="M3840 6241 c0 -25 14 -41 36 -41 19 0 24 5 24 25 0 21 -5 25 -30 25
-16 0 -30 -4 -30 -9z"/>
<path d="M5742 6218 c6 -18 28 -21 28 -4 0 9 -7 16 -16 16 -9 0 -14 -5 -12
-12z"/>
<path d="M5629 6149 c-14 -28 6 -51 39 -43 26 7 28 26 6 48 -21 21 -31 20 -45
-5z"/>
<path d="M5155 6093 c-185 -44 -291 -72 -330 -89 -16 -7 -43 -16 -60 -19 -16
-4 -40 -14 -53 -22 -19 -11 -21 -17 -11 -29 15 -18 47 -18 84 2 29 15 146 50
265 79 30 8 73 19 95 25 61 18 336 8 400 -15 75 -27 175 -97 175 -122 0 -6 7
-16 15 -23 8 -7 15 -21 15 -31 0 -10 7 -34 16 -52 15 -31 15 -38 0 -90 -9 -30
-16 -64 -16 -76 0 -11 -9 -25 -20 -31 -24 -13 -29 -80 -6 -80 18 0 56 64 56
94 0 13 6 29 14 35 21 18 21 163 -1 220 -9 25 -22 53 -30 62 -7 8 -13 20 -13
25 0 33 -109 98 -225 134 -58 19 -296 20 -370 3z"/>
<path d="M4582 6068 c6 -18 28 -21 28 -4 0 9 -7 16 -16 16 -9 0 -14 -5 -12
-12z"/>
<path d="M5898 6075 c-8 -8 3 -199 12 -209 18 -19 31 37 28 121 -2 70 -6 88
-18 91 -9 1 -18 0 -22 -3z"/>
<path d="M5147 5983 c-12 -11 -8 -22 14 -33 23 -13 49 2 49 26 0 14 -51 20
-63 7z"/>
<path d="M4997 5944 c-4 -4 -7 -16 -7 -26 0 -13 7 -18 26 -18 21 0 25 4 22 22
-3 23 -27 35 -41 22z"/>
<path d="M4573 5933 c-26 -10 -3 -63 26 -63 15 0 40 41 34 56 -5 14 -36 17
-60 7z"/>
<path d="M3442 5873 c-14 -26 3 -53 34 -53 14 0 27 7 31 16 15 39 -46 73 -65
37z"/>
<path d="M4463 5873 c-17 -2 -37 -11 -43 -19 -7 -8 -21 -14 -31 -14 -18 0 -66
-18 -122 -46 -16 -8 -37 -14 -47 -14 -9 0 -23 -7 -30 -15 -7 -8 -20 -15 -29
-15 -26 0 -111 -44 -111 -58 0 -33 35 -26 162 32 31 14 61 26 67 26 5 0 22 6
38 14 15 8 44 19 63 26 116 40 135 49 138 69 2 13 -2 20 -10 19 -7 0 -27 -3
-45 -5z"/>
<path d="M4007 5834 c-8 -8 1 -24 14 -24 5 0 9 7 9 15 0 15 -12 20 -23 9z"/>
<path d="M3155 5800 c-3 -5 3 -10 15 -10 12 0 18 5 15 10 -3 6 -10 10 -15 10
-5 0 -12 -4 -15 -10z"/>
<path d="M3570 5790 c0 -5 7 -10 15 -10 8 0 15 5 15 10 0 6 -7 10 -15 10 -8 0
-15 -4 -15 -10z"/>
<path d="M2981 5751 c-26 -20 -21 -41 8 -41 24 0 43 23 35 44 -8 20 -13 20
-43 -3z"/>
<path d="M3495 5754 c-11 -9 -48 -29 -82 -46 -35 -17 -63 -35 -63 -40 0 -4 -6
-8 -14 -8 -7 0 -30 -13 -51 -30 -21 -16 -43 -30 -50 -30 -6 0 -24 -13 -40 -30
-16 -16 -34 -30 -41 -30 -7 0 -19 -7 -27 -15 -8 -8 -33 -24 -56 -36 -22 -11
-41 -25 -41 -30 0 -5 -12 -12 -27 -16 -31 -7 -114 -59 -154 -94 -15 -13 -41
-35 -58 -49 -17 -14 -31 -30 -31 -37 0 -7 -7 -13 -15 -13 -8 0 -20 -9 -27 -20
-7 -11 -17 -20 -22 -20 -14 0 -176 -169 -176 -184 0 -8 -8 -17 -18 -20 -10 -4
-28 -19 -40 -35 -18 -24 -19 -31 -7 -41 11 -9 31 6 99 76 47 47 86 90 86 95 0
5 5 9 10 9 6 0 10 -7 10 -15 0 -8 4 -15 9 -15 18 0 23 21 10 37 -11 13 -10 17
4 28 10 7 27 11 37 8 21 -5 28 11 10 22 -17 10 -11 25 10 25 11 0 25 9 32 20
7 11 20 20 30 20 24 0 32 18 17 37 -12 14 -10 15 20 8 29 -6 32 -5 27 12 -6
19 -3 21 60 53 16 8 32 20 37 27 4 7 23 15 42 19 25 4 35 11 35 25 0 14 7 19
25 19 16 0 25 6 25 15 0 9 9 15 23 15 13 0 48 18 78 40 30 22 68 47 86 55 17
8 34 19 38 25 9 14 42 13 48 -2 3 -7 3 1 0 18 -5 30 -3 32 45 48 28 9 59 16
70 16 13 0 18 7 18 23 -1 19 5 23 43 27 52 6 61 20 24 38 -34 15 -43 15 -68
-4z"/>
<path d="M2861 5661 c-6 -11 -20 -23 -31 -26 -22 -7 -28 -45 -6 -45 7 0 19 6
25 14 7 8 23 17 37 20 19 5 25 12 22 29 -4 28 -34 34 -47 8z"/>
<path d="M3015 5624 c-19 -20 -19 -33 1 -41 20 -7 67 14 62 29 -7 21 -46 28
-63 12z"/>
<path d="M3887 5613 c-12 -11 -8 -23 8 -23 8 0 15 7 15 15 0 16 -12 20 -23 8z"/>
<path d="M3320 5555 c0 -8 7 -15 15 -15 8 0 15 7 15 15 0 8 -7 15 -15 15 -8 0
-15 -7 -15 -15z"/>
<path d="M3590 5520 c-97 -46 -115 -57 -118 -72 -4 -20 26 -25 56 -9 9 5 38
18 64 28 27 10 48 23 48 30 0 17 -32 32 -50 23z"/>
<path d="M2788 5503 c-45 -49 -124 -93 -163 -93 -18 0 -25 -5 -25 -18 0 -21
-42 -44 -65 -36 -9 4 -15 0 -15 -9 0 -8 6 -17 13 -20 9 -4 9 -7 0 -18 -11 -11
-15 -10 -26 5 -8 11 -19 15 -30 10 -25 -9 -21 -24 8 -24 27 0 35 -24 11 -33
-16 -6 -28 -45 -16 -52 5 -3 14 4 20 15 27 50 161 160 196 160 15 0 82 43 131
84 17 15 20 23 12 33 -15 18 -31 16 -51 -4z"/>
<path d="M3265 5500 c-3 -5 3 -10 14 -10 12 0 21 5 21 10 0 6 -6 10 -14 10 -8
0 -18 -4 -21 -10z"/>
<path d="M3125 5406 c-32 -32 -32 -41 6 -60 34 -17 37 -13 41 43 4 43 -14 50
-47 17z"/>
<path d="M3370 5405 c-7 -8 -16 -15 -21 -15 -4 0 -40 -21 -79 -47 -45 -31 -70
-55 -70 -67 0 -25 42 -14 91 25 20 16 40 29 44 29 15 0 105 66 105 77 0 18
-55 16 -70 -2z"/>
<path d="M5543 5322 c-63 -63 -127 -112 -146 -112 -9 0 -20 -6 -24 -13 -4 -7
-19 -18 -33 -24 -22 -10 -23 -12 -7 -18 30 -12 167 57 226 114 52 49 73 101
41 101 -4 0 -30 -22 -57 -48z"/>
<path d="M2620 5270 c-46 -44 -88 -80 -92 -80 -4 0 -8 -9 -8 -21 0 -20 1 -20
33 5 45 37 96 88 108 109 5 9 14 17 20 17 5 0 22 11 37 25 24 23 25 25 7 25
-11 0 -57 -35 -105 -80z"/>
<path d="M2970 5325 c0 -8 9 -15 20 -15 11 0 20 7 20 15 0 8 -9 15 -20 15 -11
0 -20 -7 -20 -15z"/>
<path d="M2821 5189 c-25 -34 -15 -61 19 -52 18 5 50 53 50 75 0 21 -48 6 -69
-23z"/>
<path d="M3083 5213 c-18 -7 -16 -53 3 -60 19 -7 70 40 60 56 -7 11 -41 14
-63 4z"/>
<path d="M2390 5124 c-22 -56 -6 -68 49 -36 33 18 38 31 19 50 -21 21 -58 14
-68 -14z"/>
<path d="M2909 5053 c-176 -180 -285 -348 -319 -491 -22 -95 21 -192 85 -192
47 0 48 9 10 51 -60 66 -55 129 21 279 49 98 189 278 272 349 75 65 92 101 49
101 -16 0 -52 -30 -118 -97z"/>
<path d="M3032 5019 c2 -7 10 -15 17 -17 8 -3 12 1 9 9 -2 7 -10 15 -17 17 -8
3 -12 -1 -9 -9z"/>
<path d="M2138 4950 c-32 -33 -58 -63 -58 -68 0 -6 -7 -12 -15 -16 -8 -3 -15
-12 -15 -21 0 -8 7 -15 15 -15 8 0 15 9 15 20 0 11 8 24 18 27 9 4 34 17 54
30 25 15 53 23 82 23 24 0 51 3 60 6 19 7 21 24 3 24 -7 0 -20 9 -30 20 -9 11
-23 20 -31 20 -8 0 -20 2 -28 4 -7 3 -39 -22 -70 -54z"/>
<path d="M2353 4880 c-34 -14 -31 -58 3 -66 30 -8 46 9 42 45 -3 28 -14 33
-45 21z"/>
<path d="M2107 4760 c5 -19 3 -21 -16 -15 -15 5 -23 2 -27 -12 -3 -10 -13 -33
-22 -51 -9 -19 -17 -54 -17 -79 -2 -31 -7 -49 -19 -55 -9 -5 -16 -14 -16 -19
0 -6 5 -7 11 -4 11 7 89 -42 89 -56 0 -5 7 -9 15 -9 8 0 15 7 15 15 0 8 9 15
20 15 11 0 20 7 20 15 0 9 9 34 21 56 24 49 24 144 -1 144 -10 0 -16 -12 -18
-32 -2 -17 -10 -37 -18 -43 -9 -8 -14 -31 -14 -64 0 -71 -9 -82 -50 -65 -30
13 -31 16 -25 59 12 81 36 135 72 158 34 23 44 52 19 52 -8 0 -21 3 -29 6 -12
4 -14 0 -10 -16z"/>
<path d="M2280 4702 c0 -10 -9 -35 -20 -57 -15 -30 -20 -59 -20 -121 0 -126
45 -209 129 -239 39 -13 47 -14 59 -1 12 12 11 15 -8 21 -42 13 -88 66 -116
131 -22 52 -26 72 -20 111 16 120 19 173 7 173 -6 0 -11 -8 -11 -18z"/>
<path d="M2010 4461 c0 -11 5 -23 10 -26 6 -3 10 3 10 14 0 11 -4 23 -10 26
-5 3 -10 -3 -10 -14z"/>
<path d="M2835 4390 c-7 -12 12 -40 27 -40 13 0 6 43 -9 47 -6 2 -14 -1 -18
-7z"/>
<path d="M2524 4249 c-12 -20 19 -29 103 -29 87 0 113 5 113 24 0 15 -206 20
-216 5z"/>
<path d="M5040 5575 c0 -8 9 -15 20 -15 11 0 20 7 20 15 0 8 -9 15 -20 15 -11
0 -20 -7 -20 -15z"/>
<path d="M4230 5371 c0 -4 11 -6 25 -3 14 2 25 6 25 8 0 2 -11 4 -25 4 -14 0
-25 -4 -25 -9z"/>
<path d="M4135 5350 c-4 -6 7 -10 24 -10 17 0 31 5 31 10 0 6 -11 10 -24 10
-14 0 -28 -4 -31 -10z"/>
<path d="M3960 5290 c-12 -8 -9 -10 13 -10 15 0 27 5 27 10 0 13 -20 13 -40 0z"/>
<path d="M3890 5260 c-12 -8 -9 -10 13 -10 15 0 27 5 27 10 0 13 -20 13 -40 0z"/>
<path d="M4206 5254 c-9 -8 -16 -21 -16 -29 0 -13 37 -24 58 -17 18 6 15 49
-4 56 -21 8 -20 8 -38 -10z"/>
<path d="M3816 5225 c-8 -8 -21 -15 -30 -15 -8 0 -21 -6 -28 -12 -19 -17 -48
-36 -75 -48 -13 -5 -23 -14 -23 -20 0 -5 -7 -10 -15 -10 -9 0 -18 -7 -21 -15
-4 -8 -12 -15 -20 -15 -8 0 -26 -13 -41 -30 -14 -16 -31 -30 -37 -30 -16 0
-96 -87 -96 -105 0 -8 -6 -15 -14 -15 -19 0 -66 -64 -66 -90 0 -11 -7 -23 -15
-26 -8 -4 -15 -11 -15 -18 0 -6 -6 -23 -14 -37 -23 -46 -30 -83 -31 -164 0
-54 -4 -80 -12 -80 -19 0 -28 -16 -14 -25 13 -7 24 -52 37 -145 3 -21 11 -51
18 -65 19 -36 43 -92 50 -112 3 -10 11 -18 19 -18 7 0 26 -18 43 -40 29 -40
54 -52 54 -25 0 7 -6 18 -12 22 -21 13 -78 115 -78 139 0 6 -6 17 -14 23 -28
23 -50 158 -49 294 1 70 6 133 11 140 5 7 13 28 17 47 7 35 80 153 122 200 13
14 26 33 29 43 3 9 9 17 14 17 8 0 47 32 114 93 17 16 43 33 59 39 15 5 27 14
27 19 0 5 7 9 15 9 9 0 18 7 21 15 4 8 11 15 18 15 17 0 106 44 106 52 0 14
-38 9 -54 -7z"/>
<path d="M4195 5122 c-47 -4 -95 -38 -131 -92 -22 -33 -26 -50 -27 -127 -1
-78 2 -92 25 -128 32 -50 40 -57 107 -86 52 -22 55 -22 83 -6 16 9 34 17 40
17 17 0 57 37 86 77 23 34 26 47 26 123 0 69 -4 93 -23 127 -40 75 -94 102
-186 95z m90 -87 c30 -31 31 -35 4 -69 -32 -40 -87 -30 -103 20 -5 15 0 30 16
48 29 32 50 33 83 1z m-59 -237 c8 -25 -12 -48 -43 -48 -29 0 -39 23 -25 54 8
18 16 22 36 19 14 -3 28 -14 32 -25z"/>
<path d="M3790 4780 c0 -5 9 -10 20 -10 11 0 20 5 20 10 0 6 -9 10 -20 10 -11
0 -20 -4 -20 -10z"/>
<path d="M3890 4728 c0 -7 16 -31 36 -52 36 -39 36 -40 32 -113 -4 -54 -2 -73
7 -73 22 0 29 103 10 140 -9 17 -13 35 -10 39 7 12 -43 71 -61 71 -8 0 -14 -6
-14 -12z"/>
<path d="M3770 4650 c0 -5 11 -10 24 -10 26 0 36 -21 36 -77 0 -17 3 -39 6
-48 6 -14 8 -14 25 1 11 9 19 27 19 40 0 29 -31 84 -47 84 -7 0 -13 5 -13 10
0 6 -11 10 -25 10 -14 0 -25 -4 -25 -10z"/>
<path d="M3157 4454 c-13 -13 -7 -52 9 -58 29 -11 35 -6 32 26 -3 31 -25 48
-41 32z"/>
<path d="M4670 4435 c0 -8 8 -22 18 -32 16 -16 39 -47 67 -92 6 -8 25 -35 43
-60 17 -24 32 -52 32 -62 0 -11 6 -19 13 -19 7 0 30 -9 52 -20 22 -11 49 -20
62 -20 12 0 25 -5 28 -10 10 -17 97 -52 106 -43 9 9 -68 72 -153 123 -32 19
-58 41 -58 48 0 7 -8 12 -17 11 -32 -3 -36 1 -20 19 11 12 13 22 6 32 -8 13
-12 12 -24 -4 -12 -16 -18 -17 -27 -8 -10 10 -10 17 0 32 17 27 15 32 -9 25
-15 -5 -22 -2 -26 14 -3 11 -13 23 -23 26 -10 3 -25 17 -34 30 -18 28 -36 33
-36 10z"/>
<path d="M3453 4223 c-27 -11 0 -63 33 -63 20 0 19 56 -2 64 -9 3 -16 6 -17 5
-1 0 -8 -3 -14 -6z"/>
<path d="M4625 4224 c-74 -19 -176 -60 -212 -85 -23 -16 -45 -29 -50 -29 -4 0
-24 -15 -43 -33 -20 -17 -48 -40 -63 -50 -15 -10 -32 -30 -38 -44 -7 -20 -13
-23 -21 -15 -7 7 -18 12 -25 12 -18 0 -16 -27 2 -34 17 -6 20 -41 6 -51 -6 -3
-15 4 -21 15 -6 11 -16 20 -22 20 -10 0 -8 -18 7 -67 6 -17 2 -22 -17 -25 -17
-2 -23 -9 -23 -28 0 -14 -4 -31 -9 -38 -4 -8 -8 -97 -8 -199 0 -102 -4 -197
-9 -212 -6 -14 -11 -55 -11 -91 -1 -36 -5 -68 -10 -71 -31 -20 -32 -201 -2
-273 10 -25 22 -46 27 -46 10 0 9 6 -9 48 -13 30 -14 58 -9 152 4 63 11 120
16 126 15 19 30 157 39 359 5 131 12 201 19 203 6 2 11 12 11 23 0 11 9 27 20
36 11 10 20 22 20 28 0 32 157 190 238 239 33 20 63 36 67 36 4 0 21 6 38 14
40 17 141 36 193 36 45 0 74 14 59 29 -12 11 -131 22 -160 15z"/>
<path d="M4620 4089 c-30 -5 -59 -14 -64 -19 -6 -6 -20 -10 -33 -10 -13 0 -23
-4 -23 -10 0 -14 46 -12 110 5 71 19 134 19 153 0 13 -13 16 -13 21 0 7 19 30
19 46 0 7 -8 21 -15 31 -15 9 0 24 -6 31 -14 8 -8 23 -16 34 -18 10 -2 19 -8
18 -13 -1 -16 -37 -18 -48 -3 -9 12 -78 38 -100 38 -4 0 6 -11 22 -25 17 -14
37 -25 46 -25 9 0 19 -8 23 -17 3 -10 14 -27 24 -38 10 -11 24 -38 31 -60 10
-30 23 -45 56 -63 36 -20 42 -28 42 -57 0 -18 7 -38 15 -45 11 -9 15 -35 15
-106 0 -52 -4 -94 -9 -94 -7 0 -45 -53 -59 -82 -2 -5 8 -8 23 -8 20 0 29 8 40
34 8 19 24 36 36 39 19 5 21 10 15 44 -4 21 -8 72 -10 113 -2 41 -1 62 1 45 3
-16 11 -34 19 -38 8 -4 15 -25 15 -45 1 -20 5 -50 9 -67 12 -51 22 -5 17 77
-5 77 -15 124 -42 197 -17 47 -73 131 -87 131 -5 0 -12 8 -16 19 -11 28 -87
88 -130 102 -20 6 -41 15 -47 19 -17 12 -167 18 -225 9z m378 -167 c2 -13 14
-28 28 -34 13 -6 24 -17 24 -23 0 -7 10 -19 22 -27 14 -9 19 -20 15 -31 -9
-24 -25 -21 -29 5 -2 13 -11 24 -22 26 -22 5 -86 69 -86 87 0 34 43 31 48 -3z"/>
<path d="M4440 4016 c0 -9 7 -12 20 -9 11 3 20 9 20 14 0 5 -9 9 -20 9 -11 0
-20 -6 -20 -14z"/>
<path d="M4705 4010 c-11 -18 13 -36 31 -25 9 6 16 15 17 20 3 14 -40 18 -48
5z"/>
<path d="M4727 3909 c8 -16 19 -29 24 -29 6 0 9 -6 7 -13 -2 -8 12 -26 30 -41
17 -15 32 -36 32 -46 0 -29 11 -50 26 -50 10 0 14 -13 14 -47 0 -46 0 -46 21
-27 17 16 22 16 30 4 21 -33 22 -62 1 -90 -22 -30 -20 -70 4 -70 8 0 14 4 14
9 0 5 6 16 13 23 39 41 63 112 47 138 -6 10 -12 11 -22 2 -35 -29 -73 10 -66
68 2 20 -2 26 -22 28 -30 5 -49 29 -50 63 0 28 -48 78 -91 96 l-27 12 15 -30z"/>
<path d="M3770 3005 c0 -8 5 -15 10 -15 6 0 10 7 10 15 0 8 -4 15 -10 15 -5 0
-10 -7 -10 -15z"/>
<path d="M5055 2984 c-16 -13 -36 -29 -42 -35 -16 -12 -17 -29 -3 -29 13 0 80
68 80 81 0 12 -1 12 -35 -17z"/>
<path d="M3684 2915 c-21 -25 -43 -45 -47 -45 -4 0 -20 -13 -35 -28 -15 -15
-48 -39 -75 -52 -26 -13 -52 -29 -58 -37 -6 -7 -25 -13 -41 -13 -16 0 -31 -6
-34 -15 -4 -8 -12 -15 -20 -15 -7 0 -17 -8 -23 -17 -5 -10 -29 -23 -53 -28
-34 -9 -44 -16 -46 -34 -2 -13 -12 -26 -23 -28 -19 -5 -27 -23 -11 -23 5 0 36
14 70 30 34 17 65 30 69 30 3 0 21 11 39 25 18 14 37 25 42 25 5 0 17 9 27 20
10 11 22 20 27 20 27 0 180 136 225 200 28 39 7 30 -33 -15z"/>
<path d="M4960 2895 c-7 -8 -37 -29 -67 -46 -30 -17 -62 -39 -71 -48 -36 -37
-112 -81 -139 -81 -16 0 -40 -8 -53 -17 -25 -17 -79 -28 -197 -39 -67 -7 -172
20 -209 54 -10 9 -31 25 -45 34 -15 9 -37 38 -49 63 -15 31 -26 43 -33 36 -11
-11 -8 -17 31 -80 15 -24 42 -52 60 -61 19 -10 41 -25 51 -34 10 -9 28 -16 42
-16 13 -1 52 -7 86 -14 76 -16 252 -1 293 26 14 9 44 21 67 27 43 12 60 24 88
64 13 19 18 20 36 9 19 -12 20 -11 14 7 -5 16 0 24 19 33 14 6 26 15 26 20 0
4 6 8 13 8 12 0 77 54 77 64 0 12 -28 5 -40 -9z"/>
<path d="M3990 2652 c0 -20 16 -43 65 -91 64 -63 64 -63 110 -57 47 8 63 26
21 26 -31 0 -132 85 -145 122 -14 39 -51 39 -51 0z"/>
<path d="M4220 2545 c0 -8 7 -15 15 -15 9 0 33 -11 55 -25 48 -30 47 -30 89
-4 40 24 29 39 -31 39 -20 0 -40 5 -43 10 -10 17 -85 12 -85 -5z"/>
<path d="M3977 2506 c-3 -8 0 -22 8 -32 11 -16 17 -16 39 -6 33 15 33 26 1 40
-33 15 -42 15 -48 -2z"/>
<path d="M3303 2483 c-21 -8 -15 -41 8 -48 26 -8 54 16 46 39 -6 16 -29 20
-54 9z"/>
<path d="M3375 2400 c-36 -40 -63 -137 -51 -185 11 -45 33 -29 44 33 11 59 23
95 44 124 10 14 10 21 -3 33 -14 14 -17 14 -34 -5z"/>
<path d="M3260 2310 c-12 -23 -6 -40 16 -40 8 0 14 10 14 24 0 33 -16 42 -30
16z"/>
<path d="M3440 2282 c-24 -8 -30 -24 -30 -82 0 -35 -6 -64 -16 -78 -19 -27 -9
-45 10 -19 14 19 36 23 36 7 0 -5 8 -10 18 -10 16 1 15 2 -2 15 -15 12 -18 22
-13 59 4 25 12 54 18 64 14 23 1 51 -21 44z"/>
<path d="M3595 2201 c-6 -11 9 -23 19 -14 9 9 7 23 -3 23 -6 0 -12 -4 -16 -9z"/>
<path d="M3267 2113 c-10 -10 -8 -41 3 -48 13 -8 50 13 50 29 0 20 -39 34 -53
19z"/>
<path d="M4880 4906 c-75 -11 -130 -32 -130 -48 0 -11 47 -10 54 1 5 8 160 23
225 22 31 -1 61 13 61 28 0 11 -130 9 -210 -3z"/>
<path d="M5125 4891 c-3 -6 11 -13 30 -17 38 -7 51 -2 40 15 -8 14 -62 14 -70
2z"/>
<path d="M4983 4795 c-67 -6 -128 -17 -135 -22 -7 -6 -33 -16 -58 -22 -34 -8
-9 -8 105 -3 127 6 302 7 388 3 63 -3 77 -1 77 14 0 10 -10 15 -34 15 -19 0
-70 7 -113 15 -43 8 -85 14 -93 14 -8 -1 -70 -7 -137 -14z"/>
<path d="M3314 3837 c-30 -32 -40 -117 -13 -117 5 0 9 15 9 34 0 18 9 45 20
59 35 44 22 65 -16 24z"/>
<path d="M3455 3771 c-22 -10 -51 -30 -64 -45 -14 -14 -35 -26 -48 -26 -28 0
-30 -11 -3 -28 25 -15 47 -6 105 46 l39 36 9 -37 c8 -34 12 -37 42 -37 47 0
55 29 19 75 -30 39 -42 41 -99 16z"/>
<path d="M3597 3694 c-6 -6 20 -61 34 -69 5 -4 9 7 9 24 0 28 -29 59 -43 45z"/>
<path d="M3136 3621 c-19 -21 -46 -101 -46 -138 0 -15 16 -39 40 -63 22 -22
40 -46 40 -54 0 -18 36 -40 50 -31 27 16 -17 115 -50 115 -35 0 -43 85 -10
115 23 21 26 48 7 64 -11 8 -18 6 -31 -8z"/>
<path d="M3650 3590 c0 -11 7 -20 15 -20 17 0 18 2 9 24 -9 23 -24 20 -24 -4z"/>
<path d="M3675 3520 c-8 -13 4 -88 15 -95 13 -8 38 5 45 23 3 9 -2 31 -12 49
-18 33 -36 42 -48 23z"/>
<path d="M3155 3202 c-6 -4 -23 -27 -39 -52 -35 -54 -152 -169 -184 -181 -13
-5 -28 -7 -33 -3 -5 3 -9 -1 -9 -9 0 -21 27 -29 50 -15 15 10 24 9 46 -2 27
-15 27 -14 110 75 46 50 89 102 95 117 20 48 -4 94 -36 70z"/>
<path d="M4774 2245 c-8 -21 2 -45 20 -45 17 0 28 24 20 45 -4 8 -13 15 -20
15 -8 0 -17 -7 -20 -15z"/>
<path d="M4517 2143 c-9 -9 22 -43 40 -43 16 0 17 22 1 38 -13 13 -31 16 -41
5z"/>
<path d="M2100 2485 c0 -9 6 -12 15 -9 8 4 15 10 15 15 0 5 -7 9 -15 9 -8 0
-15 -7 -15 -15z"/>
<path d="M2631 2292 c-6 -2 -11 -12 -11 -23 0 -23 6 -25 209 -38 143 -10 167
-10 180 3 19 20 16 21 -129 36 -63 6 -143 15 -177 18 -34 4 -67 6 -72 4z"/>
<path d="M5954 4643 l-122 -4 -5 -37 c-2 -20 -1 -41 3 -45 8 -9 120 -30 223
-42 l57 -6 0 70 c0 62 -2 71 -17 69 -10 -1 -73 -4 -139 -5z"/>
<path d="M5766 4385 c-9 -13 -16 -34 -16 -46 0 -19 35 -58 53 -59 14 0 127
-90 127 -101 0 -17 39 -9 84 19 26 15 45 33 43 42 -2 13 -46 43 -102 69 -11 5
-37 21 -58 35 -21 14 -40 26 -42 26 -3 0 -14 9 -25 20 -27 27 -44 25 -64 -5z"/>
<path d="M1704 4319 c-3 -6 -1 -16 5 -22 8 -8 11 -5 11 11 0 24 -5 28 -16 11z"/>
<path d="M6090 4096 c0 -14 5 -26 10 -26 6 0 10 9 10 19 0 11 -4 23 -10 26 -6
4 -10 -5 -10 -19z"/>
<path d="M6026 4073 c-12 -12 -6 -33 9 -33 8 0 15 6 15 14 0 17 -14 28 -24 19z"/>
<path d="M5870 4055 c0 -8 7 -15 15 -15 8 0 15 7 15 15 0 8 -7 15 -15 15 -8 0
-15 -7 -15 -15z"/>
<path d="M6145 4059 c-10 -15 3 -25 16 -12 7 7 7 13 1 17 -6 3 -14 1 -17 -5z"/>
<path d="M1822 2801 c2 -7 7 -12 11 -12 12 1 9 15 -3 20 -7 2 -11 -2 -8 -8z"/>
<path d="M1730 2765 c0 -8 7 -15 15 -15 8 0 15 7 15 15 0 8 -7 15 -15 15 -8 0
-15 -7 -15 -15z"/>
<path d="M1852 2769 c2 -6 8 -10 13 -10 5 0 11 4 13 10 2 6 -4 11 -13 11 -9 0
-15 -5 -13 -11z"/>
<path d="M1796 2742 c-3 -6 -1 -14 5 -17 15 -10 25 3 12 16 -7 7 -13 7 -17 1z"/>
<path d="M2400 1565 c-14 -8 -51 -14 -83 -15 -60 0 -183 -26 -204 -43 -7 -5
-13 -15 -13 -21 0 -18 80 -45 169 -57 47 -5 89 -13 95 -16 15 -9 106 -9 106 0
0 4 -9 17 -20 29 -15 17 -22 19 -34 9 -8 -7 -17 -8 -20 -3 -3 5 -26 13 -51 16
-25 4 -45 11 -45 16 0 12 68 30 86 23 17 -6 78 53 69 67 -8 14 -25 12 -55 -5z"/>
<path d="M5562 1539 c2 -7 24 -19 48 -26 64 -19 69 -30 21 -43 -41 -11 -111
-47 -111 -57 0 -5 33 -2 160 18 132 20 150 27 150 60 0 11 -7 19 -15 19 -9 0
-27 7 -40 16 -33 22 -220 33 -213 13z"/>
<path d="M6114 1509 c-3 -6 -1 -16 5 -22 8 -8 11 -5 11 11 0 24 -5 28 -16 11z"/>
<path d="M5886 1437 c-43 -13 -62 -45 -43 -71 13 -17 29 -20 98 -18 28 1 56 9
69 20 l22 18 -23 26 c-29 32 -71 41 -123 25z"/>
<path d="M1982 1407 c-21 -22 -30 -66 -14 -68 4 0 40 -1 81 -2 69 -2 74 -1 84
21 10 21 8 28 -16 48 -38 33 -105 33 -135 1z"/>
<path d="M0 122 c0 -116 1 -122 20 -122 20 0 20 5 16 106 -3 80 -8 110 -20
122 -15 15 -16 6 -16 -106z"/>
</g>
</svg>
