<?xml version="1.0" encoding="UTF-8"?>
<!DOCTYPE svg PUBLIC "-//W3C//DTD SVG 1.1//EN" "http://www.w3.org/Graphics/SVG/1.1/DTD/svg11.dtd">
<svg xmlns="http://www.w3.org/2000/svg" version="1.1" width="512px" height="512px" style="shape-rendering:geometricPrecision; text-rendering:geometricPrecision; image-rendering:optimizeQuality; fill-rule:evenodd; clip-rule:evenodd" xmlns:xlink="http://www.w3.org/1999/xlink">
<g><path style="opacity:1" fill="#533d5a" d="M 294.5,15.5 C 297.359,34.3797 293.525,51.713 283,67.5C 272.896,76.8076 261.396,83.9743 248.5,89C 227.985,96.7275 207.318,104.061 186.5,111C 156.648,121.916 129.981,137.916 106.5,159C 96.4111,169.365 86.9111,180.198 78,191.5C 63.8674,206.968 47.0341,218.468 27.5,226C 18.696,228.69 9.696,229.856 0.5,229.5C 12.9696,137.337 60.9696,71.1703 144.5,31C 192.993,10.0511 242.993,4.8844 294.5,15.5 Z"/></g>
<g><path style="opacity:0.997" fill="#45304c" d="M 294.5,15.5 C 340.812,24.9844 380.812,45.9844 414.5,78.5C 392.205,66.9253 368.872,64.4253 344.5,71C 338.683,72.7451 333.35,75.2451 328.5,78.5C 297.423,95.5855 277.089,121.252 267.5,155.5C 232.879,151.494 200.213,157.827 169.5,174.5C 130.54,194.777 97.2062,222.11 69.5,256.5C 56.1202,272.25 43.9535,288.917 33,306.5C 31.3947,311.478 32.8947,315.145 37.5,317.5C 38.0219,318.607 38.3552,319.774 38.5,321C 37.4731,324.521 35.8064,327.687 33.5,330.5C 27.5,334.833 21.5,339.167 15.5,343.5C 7.23875,322.19 1.90542,300.19 -0.5,277.5C -0.5,262.833 -0.5,248.167 -0.5,233.5C 0.434475,232.432 0.767809,231.099 0.5,229.5C 9.696,229.856 18.696,228.69 27.5,226C 47.0341,218.468 63.8674,206.968 78,191.5C 86.9111,180.198 96.4111,169.365 106.5,159C 129.981,137.916 156.648,121.916 186.5,111C 207.318,104.061 227.985,96.7275 248.5,89C 261.396,83.9743 272.896,76.8076 283,67.5C 293.525,51.713 297.359,34.3797 294.5,15.5 Z"/></g>
<g><path style="opacity:1" fill="#f8baae" d="M 414.5,78.5 C 424.373,83.3738 432.373,90.3738 438.5,99.5C 436.242,105.734 433.575,111.734 430.5,117.5C 430.8,120.766 432.133,123.433 434.5,125.5C 435.699,129.099 436.699,132.765 437.5,136.5C 434.833,137.833 432.167,139.167 429.5,140.5C 409.32,142.489 394.82,152.489 386,170.5C 385.505,172.473 385.338,174.473 385.5,176.5C 375.591,176.3 367.091,172.633 360,165.5C 357.867,161.768 356.534,157.768 356,153.5C 355.667,143.5 355.333,133.5 355,123.5C 354.253,117.174 351.753,111.674 347.5,107C 343.286,104.814 338.953,102.814 334.5,101C 325.44,95.3261 323.44,87.8261 328.5,78.5C 333.35,75.2451 338.683,72.7451 344.5,71C 368.872,64.4253 392.205,66.9253 414.5,78.5 Z"/></g>
<g><path style="opacity:1" fill="#ee9f8b" d="M 328.5,78.5 C 323.44,87.8261 325.44,95.3261 334.5,101C 338.953,102.814 343.286,104.814 347.5,107C 351.753,111.674 354.253,117.174 355,123.5C 355.333,133.5 355.667,143.5 356,153.5C 356.534,157.768 357.867,161.768 360,165.5C 367.091,172.633 375.591,176.3 385.5,176.5C 386.287,178.104 387.62,178.771 389.5,178.5C 388.575,197.806 393.408,215.473 404,231.5C 407.369,235.037 410.869,238.371 414.5,241.5C 412.613,268.263 402.78,291.597 385,311.5C 357.002,339.62 323.835,359.286 285.5,370.5C 277.282,373.304 268.948,375.637 260.5,377.5C 241.968,371.122 234.134,358.122 237,338.5C 237.943,334.269 239.443,330.269 241.5,326.5C 242.625,325.652 242.625,324.652 241.5,323.5C 244.85,323.335 248.183,323.502 251.5,324C 253.833,325.667 256.167,327.333 258.5,329C 260.5,329.667 262.5,329.667 264.5,329C 305.551,304.747 325.051,268.581 323,220.5C 317.598,187.602 299.098,165.935 267.5,155.5C 277.089,121.252 297.423,95.5855 328.5,78.5 Z"/></g>
<g><path style="opacity:1" fill="#553f5b" d="M 377.5,96.5 C 388.817,94.3159 396.984,98.3159 402,108.5C 403.5,125.667 395.667,133.5 378.5,132C 368.12,127.068 364.287,118.901 367,107.5C 369.357,102.645 372.857,98.9788 377.5,96.5 Z"/></g>
<g><path style="opacity:0.983" fill="#d0714b" d="M 438.5,99.5 C 454.443,99.094 470.109,100.927 485.5,105C 496.237,107.929 504.904,113.762 511.5,122.5C 511.5,124.5 511.5,126.5 511.5,128.5C 510.584,128.982 509.584,129.315 508.5,129.5C 504.001,127.556 499.335,126.222 494.5,125.5C 493.737,124.732 492.737,124.232 491.5,124C 472.372,121.685 453.372,122.185 434.5,125.5C 432.133,123.433 430.8,120.766 430.5,117.5C 433.575,111.734 436.242,105.734 438.5,99.5 Z"/></g>
<g><path style="opacity:0.968" fill="#a5533a" d="M 494.5,125.5 C 482.194,127.993 469.861,130.327 457.5,132.5C 450.86,133.961 444.193,135.295 437.5,136.5C 436.699,132.765 435.699,129.099 434.5,125.5C 453.372,122.185 472.372,121.685 491.5,124C 492.737,124.232 493.737,124.732 494.5,125.5 Z"/></g>
<g><path style="opacity:0.998" fill="#45304c" d="M 457.5,132.5 C 473.495,160.818 483.495,191.152 487.5,223.5C 470.199,226.582 458.032,236.249 451,252.5C 435.51,316.989 397.677,363.155 337.5,391C 326.987,399.194 321.653,410.027 321.5,423.5C 323.128,446.099 333.461,463.433 352.5,475.5C 338.317,483.082 323.317,488.748 307.5,492.5C 298.83,477.159 290.163,461.825 281.5,446.5C 277.56,438.058 273.393,429.725 269,421.5C 266.559,415.738 265.392,409.738 265.5,403.5C 269.47,400.361 272.97,396.695 276,392.5C 279.464,385.266 282.631,377.933 285.5,370.5C 323.835,359.286 357.002,339.62 385,311.5C 402.78,291.597 412.613,268.263 414.5,241.5C 416.87,222.883 415.037,204.55 409,186.5C 407.544,176.113 409.544,166.447 415,157.5C 419.353,151.322 424.186,145.656 429.5,140.5C 432.167,139.167 434.833,137.833 437.5,136.5C 444.193,135.295 450.86,133.961 457.5,132.5 Z"/></g>
<g><path style="opacity:1" fill="#e7ecfc" d="M 429.5,140.5 C 424.186,145.656 419.353,151.322 415,157.5C 409.544,166.447 407.544,176.113 409,186.5C 415.037,204.55 416.87,222.883 414.5,241.5C 410.869,238.371 407.369,235.037 404,231.5C 393.408,215.473 388.575,197.806 389.5,178.5C 387.62,178.771 386.287,178.104 385.5,176.5C 385.338,174.473 385.505,172.473 386,170.5C 394.82,152.489 409.32,142.489 429.5,140.5 Z"/></g>
<g><path style="opacity:1" fill="#f8baae" d="M 267.5,155.5 C 299.098,165.935 317.598,187.602 323,220.5C 325.051,268.581 305.551,304.747 264.5,329C 262.5,329.667 260.5,329.667 258.5,329C 256.167,327.333 253.833,325.667 251.5,324C 248.183,323.502 244.85,323.335 241.5,323.5C 220.825,315.493 212.658,300.493 217,278.5C 221.203,264.892 225.203,251.226 229,237.5C 230.378,227.088 226.211,219.921 216.5,216C 207.529,213.893 198.529,211.893 189.5,210C 178.146,207.309 170.646,200.476 167,189.5C 166.121,184.187 166.955,179.187 169.5,174.5C 200.213,157.827 232.879,151.494 267.5,155.5 Z"/></g>
<g><path style="opacity:1" fill="#ee9f8a" d="M 169.5,174.5 C 166.955,179.187 166.121,184.187 167,189.5C 170.646,200.476 178.146,207.309 189.5,210C 198.529,211.893 207.529,213.893 216.5,216C 226.211,219.921 230.378,227.088 229,237.5C 225.203,251.226 221.203,264.892 217,278.5C 212.658,300.493 220.825,315.493 241.5,323.5C 242.625,324.652 242.625,325.652 241.5,326.5C 241.44,325.957 241.107,325.624 240.5,325.5C 202.123,344.006 161.79,355.506 119.5,360C 108.723,351.561 105.556,340.728 110,327.5C 112.469,319.094 115.135,310.761 118,302.5C 120.603,293.895 118.103,287.395 110.5,283C 103.308,280.702 95.9743,279.035 88.5,278C 76.9023,275.248 70.569,268.082 69.5,256.5C 97.2062,222.11 130.54,194.777 169.5,174.5 Z"/></g>
<g><path style="opacity:1" fill="#533d5a" d="M 487.5,223.5 C 497.249,322.153 462.249,400.653 382.5,459C 372.927,465.286 362.927,470.786 352.5,475.5C 333.461,463.433 323.128,446.099 321.5,423.5C 321.653,410.027 326.987,399.194 337.5,391C 397.677,363.155 435.51,316.989 451,252.5C 458.032,236.249 470.199,226.582 487.5,223.5 Z"/></g>
<g><path style="opacity:1" fill="#e48a6b" d="M 69.5,256.5 C 70.569,268.082 76.9023,275.248 88.5,278C 95.9743,279.035 103.308,280.702 110.5,283C 118.103,287.395 120.603,293.895 118,302.5C 115.135,310.761 112.469,319.094 110,327.5C 105.556,340.728 108.723,351.561 119.5,360C 161.79,355.506 202.123,344.006 240.5,325.5C 241.107,325.624 241.44,325.957 241.5,326.5C 239.443,330.269 237.943,334.269 237,338.5C 234.134,358.122 241.968,371.122 260.5,377.5C 250.274,380.294 239.94,382.628 229.5,384.5C 224.91,385.921 221.744,388.921 220,393.5C 216.631,397.037 213.131,400.371 209.5,403.5C 201.138,408.173 192.138,410.173 182.5,409.5C 180.239,408.41 178.406,406.744 177,404.5C 176.735,396.488 176.735,388.488 177,380.5C 175.891,378.185 174.057,376.685 171.5,376C 150.018,374.629 129.351,369.796 109.5,361.5C 93.5804,362.764 77.9138,365.431 62.5,369.5C 52.0455,371.424 42.3788,375.091 33.5,380.5C 30.4074,376.653 28.0741,372.32 26.5,367.5C 26.6539,354.731 28.9873,342.398 33.5,330.5C 35.8064,327.687 37.4731,324.521 38.5,321C 38.3552,319.774 38.0219,318.607 37.5,317.5C 32.8947,315.145 31.3947,311.478 33,306.5C 43.9535,288.917 56.1202,272.25 69.5,256.5 Z"/></g>
<g><path style="opacity:0.983" fill="#cf704b" d="M 33.5,330.5 C 28.9873,342.398 26.6539,354.731 26.5,367.5C 21.7754,360.047 18.1088,352.047 15.5,343.5C 21.5,339.167 27.5,334.833 33.5,330.5 Z"/></g>
<g><path style="opacity:0.997" fill="#45304c" d="M 182.5,409.5 C 182.614,417.571 184.448,425.237 188,432.5C 193.608,442.066 199.441,451.399 205.5,460.5C 214.167,473.833 222.833,487.167 231.5,500.5C 219.421,499.823 207.421,498.49 195.5,496.5C 182.542,467.911 166.042,441.577 146,417.5C 138.519,408.179 129.019,402.012 117.5,399C 105.391,397.721 94.7243,401.055 85.5,409C 79.603,414.729 73.9363,420.562 68.5,426.5C 58.0636,416.065 48.7302,404.731 40.5,392.5C 42.371,392.141 43.871,391.141 45,389.5C 50.2969,382.369 56.1302,375.703 62.5,369.5C 77.9138,365.431 93.5804,362.764 109.5,361.5C 129.351,369.796 150.018,374.629 171.5,376C 174.057,376.685 175.891,378.185 177,380.5C 176.735,388.488 176.735,396.488 177,404.5C 178.406,406.744 180.239,408.41 182.5,409.5 Z"/></g>
<g><path style="opacity:0.991" fill="#cf704b" d="M 62.5,369.5 C 56.1302,375.703 50.2969,382.369 45,389.5C 43.871,391.141 42.371,392.141 40.5,392.5C 38.1391,388.483 35.8058,384.483 33.5,380.5C 42.3788,375.091 52.0455,371.424 62.5,369.5 Z"/></g>
<g><path style="opacity:1" fill="#d0704b" d="M 285.5,370.5 C 282.631,377.933 279.464,385.266 276,392.5C 272.97,396.695 269.47,400.361 265.5,403.5C 256.771,408.684 247.438,410.35 237.5,408.5C 235.248,408.084 233.748,406.751 233,404.5C 232.5,397.842 232.334,391.175 232.5,384.5C 231.5,384.5 230.5,384.5 229.5,384.5C 239.94,382.628 250.274,380.294 260.5,377.5C 268.948,375.637 277.282,373.304 285.5,370.5 Z"/></g>
<g><path style="opacity:0.997" fill="#46304c" d="M 229.5,384.5 C 230.5,384.5 231.5,384.5 232.5,384.5C 232.334,391.175 232.5,397.842 233,404.5C 233.748,406.751 235.248,408.084 237.5,408.5C 238.399,415.283 239.899,421.95 242,428.5C 247.44,439.066 253.606,449.066 260.5,458.5C 268.5,471.5 276.5,484.5 284.5,497.5C 276.244,499.01 267.911,500.01 259.5,500.5C 254.447,494.943 249.947,488.943 246,482.5C 239.217,470.598 232.717,458.598 226.5,446.5C 222.346,438.86 218.179,431.194 214,423.5C 211.551,417.037 210.051,410.37 209.5,403.5C 213.131,400.371 216.631,397.037 220,393.5C 221.744,388.921 224.91,385.921 229.5,384.5 Z"/></g>
<g><path style="opacity:1" fill="#533d5a" d="M 195.5,496.5 C 145.883,485.869 103.55,462.536 68.5,426.5C 73.9363,420.562 79.603,414.729 85.5,409C 94.7243,401.055 105.391,397.721 117.5,399C 129.019,402.012 138.519,408.179 146,417.5C 166.042,441.577 182.542,467.911 195.5,496.5 Z"/></g>
<g><path style="opacity:1" fill="#cf704b" d="M 209.5,403.5 C 210.051,410.37 211.551,417.037 214,423.5C 218.179,431.194 222.346,438.86 226.5,446.5C 217.842,443.774 211.009,446.107 206,453.5C 205.503,455.81 205.337,458.143 205.5,460.5C 199.441,451.399 193.608,442.066 188,432.5C 184.448,425.237 182.614,417.571 182.5,409.5C 192.138,410.173 201.138,408.173 209.5,403.5 Z"/></g>
<g><path style="opacity:1" fill="#a4523a" d="M 265.5,403.5 C 265.392,409.738 266.559,415.738 269,421.5C 273.393,429.725 277.56,438.058 281.5,446.5C 274.525,444.326 268.358,445.66 263,450.5C 261.293,452.909 260.46,455.575 260.5,458.5C 253.606,449.066 247.44,439.066 242,428.5C 239.899,421.95 238.399,415.283 237.5,408.5C 247.438,410.35 256.771,408.684 265.5,403.5 Z"/></g>
<g><path style="opacity:1" fill="#e3896b" d="M 226.5,446.5 C 232.717,458.598 239.217,470.598 246,482.5C 249.947,488.943 254.447,494.943 259.5,500.5C 250.167,500.5 240.833,500.5 231.5,500.5C 222.833,487.167 214.167,473.833 205.5,460.5C 205.337,458.143 205.503,455.81 206,453.5C 211.009,446.107 217.842,443.774 226.5,446.5 Z"/></g>
<g><path style="opacity:0.999" fill="#cf6f4a" d="M 281.5,446.5 C 290.163,461.825 298.83,477.159 307.5,492.5C 300.116,494.926 292.449,496.593 284.5,497.5C 276.5,484.5 268.5,471.5 260.5,458.5C 260.46,455.575 261.293,452.909 263,450.5C 268.358,445.66 274.525,444.326 281.5,446.5 Z"/></g>
</svg>
